<svg width="39" height="52" viewBox="0 0 39 52" fill="none" xmlns="http://www.w3.org/2000/svg">
<path fill-rule="evenodd" clip-rule="evenodd" d="M31.6445 10.9773C31.5176 8.29201 28.1698 7.14758 26.4257 9.19333L2.15845 37.6589C-0.514611 40.7944 -0.139726 45.5032 2.99578 48.1762C6.13633 50.8536 10.8539 50.4726 13.5241 47.326L18.1255 41.9037L22.0479 46.9395C24.5 50.0876 29.04 50.6519 32.1881 48.1997C35.7407 45.4326 35.9241 40.1253 32.5711 37.1195L31.3147 35.9932C29.5576 34.418 26.5055 32.3794 28.1875 29.7695C28.194 29.6429 29.9446 27.4034 30.2341 27.114L37.6794 18.9803C39.513 16.8434 37.843 13.557 35.036 13.7781L34.8394 13.7936C33.1703 13.9251 31.7234 12.6496 31.6445 10.9773Z" fill="url(#paint0_linear_3406_24)"/>
<path d="M0 8.04053C0 3.89839 3.35786 0.540527 7.5 0.540527V0.540527C11.6421 0.540527 15 3.89839 15 8.04053V43.0405C15 47.1827 11.6421 50.5405 7.5 50.5405V50.5405C3.35786 50.5405 0 47.1827 0 43.0405V8.04053Z" fill="url(#paint1_linear_3406_24)"/>
<defs>
<linearGradient id="paint0_linear_3406_24" x1="30.4247" y1="61.6081" x2="37.2494" y2="14.5786" gradientUnits="userSpaceOnUse">
<stop offset="0.300036" stop-color="#005CE6"/>
<stop offset="0.882339" stop-color="#36609F" stop-opacity="0.39"/>
</linearGradient>
<linearGradient id="paint1_linear_3406_24" x1="7.5" y1="-19.3447" x2="7.5" y2="50.5405" gradientUnits="userSpaceOnUse">
<stop stop-color="#4EE8EF"/>
<stop offset="0.520833" stop-color="#54D9DF"/>
<stop offset="1" stop-color="#9165C9"/>
</linearGradient>
</defs>
</svg>
